<svg xmlns="http://www.w3.org/2000/svg" width="436.779" height="345.987" viewBox="0 0 436.779 345.987">
  <g id="bgShadowLogo" transform="translate(-403.822 -730.904)" opacity="0.03">
    <path id="Path_32" data-name="Path 32" d="M193.422,303.123q-33.425,0-51.093-20.2t-17.663-58.382V92.1q0-35.8,17.505-54.335t51.251-18.537q33.747,0,51.251,18.537T262.178,92.1V224.542q0,38.19-17.663,58.382t-51.093,20.2m.476-51.329q12.675,0,12.673-24.558V91.153q0-20.6-12.355-20.6-13.947,0-13.944,21.076V227.557q0,12.987,3.17,18.615t10.456,5.621" transform="translate(279.156 711.677)" fill="#2c2c2c"/>
    <path id="Path_33" data-name="Path 33" d="M175.4,298.858V20.031h57.351l25.665,133.55V20.031h53.862V298.858h-54.5L229.894,159.444V298.858Z" transform="translate(388.435 713.408)" fill="#2c2c2c"/>
    <path id="Path_34" data-name="Path 34" d="M226.631,298.858V20.031H338.162V73.893H283.347v54.342h52.6v52.437h-52.6v63.845H341.8v54.342Z" transform="translate(498.796 713.408)" fill="#2c2c2c"/>
    <path id="Path_35" data-name="Path 35" d="M140.32,163.954q-6.9,0-9.951-3.435t-3.044-10.935V144.66h9.957v6.3a5.849,5.849,0,0,0,.53,2.735,1.914,1.914,0,0,0,1.845.987,2.115,2.115,0,0,0,1.905-.8,4.952,4.952,0,0,0,.53-2.634,13.946,13.946,0,0,0-.461-3.879,8.786,8.786,0,0,0-1.587-2.977,33.879,33.879,0,0,0-3.132-3.305l-4.526-4.293a14.66,14.66,0,0,1-5.062-10.935q0-6.439,2.987-9.819t8.661-3.378q6.926,0,9.828,3.693t2.911,11.219H141.462v-3.46a2.137,2.137,0,0,0-.587-1.605,2.572,2.572,0,0,0-3.35.1,2.619,2.619,0,0,0-.558,1.732,5.465,5.465,0,0,0,.574,2.29,10.123,10.123,0,0,0,2.262,2.832l5.81,5.583a33.491,33.491,0,0,1,3.2,3.507,15,15,0,0,1,2.347,4.293,17.5,17.5,0,0,1,.889,5.968q0,7.1-2.618,11.121t-9.115,4.021" transform="translate(284.883 912.937)" fill="#2c2c2c"/>
    <path id="Path_36" data-name="Path 36" d="M165.4,163.184v-40.7h-5.98V112.8h22.038v9.677h-5.98v40.7Z" transform="translate(354.012 913.249)" fill="#2c2c2c"/>
    <path id="Path_37" data-name="Path 37" d="M203.307,163.952q-6.042,0-9.232-3.646t-3.192-10.55V125.828q0-6.472,3.164-9.819t9.26-3.35q6.094,0,9.257,3.35t3.164,9.819v23.927q0,6.9-3.192,10.55t-9.229,3.646m.085-9.273q2.29,0,2.29-4.435V125.655q0-3.719-2.233-3.722-2.522,0-2.52,3.807V150.3a7.253,7.253,0,0,0,.574,3.362,2,2,0,0,0,1.889,1.016" transform="translate(421.792 912.939)" fill="#2c2c2c"/>
    <path id="Path_38" data-name="Path 38" d="M223.765,163.182V112.805H239.22q3.865,0,5.841,1.76a8.826,8.826,0,0,1,2.646,4.924,36.1,36.1,0,0,1,.675,7.428,17.128,17.128,0,0,1-1.047,6.583,6.04,6.04,0,0,1-3.933,3.406,4.52,4.52,0,0,1,3.334,2.362,10.678,10.678,0,0,1,.959,4.851v19.063H237.76V143.46c0-1.47-.3-2.378-.9-2.731a6,6,0,0,0-2.908-.53v22.984Zm10.248-31.714h2.432q2.091,0,2.091-4.551a10.364,10.364,0,0,0-.457-3.864,1.743,1.743,0,0,0-1.719-.915h-2.347Z" transform="translate(492.623 913.252)" fill="#2c2c2c"/>
    <path id="Path_39" data-name="Path 39" d="M256.338,163.184V112.8h20.151v9.733h-9.9v9.819h9.5v9.475h-9.5v11.534h10.563v9.819Z" transform="translate(562.788 913.249)" fill="#2c2c2c"/>
  </g>
</svg>
