<svg xmlns="http://www.w3.org/2000/svg" xmlns:xlink="http://www.w3.org/1999/xlink" width="311.566" height="152.644" viewBox="0 0 311.566 152.644">
  <defs>
    <clipPath id="clip-path">
      <rect id="Rectangle_1" data-name="Rectangle 1" width="311.566" height="152.644" fill="none"/>
    </clipPath>
    <clipPath id="clip-path-2">
      <path id="Path_14" data-name="Path 14" d="M78.277,37.318A3.622,3.622,0,0,1,78,32.96a3.356,3.356,0,1,1,2.755,5.272,4.05,4.05,0,0,1-2.477-.914M64.634,20.1V45.815l17.3-.026v83.388l33.858-5.258.163-99.663a4.145,4.145,0,0,0-4.145-4.152Z" transform="translate(-64.634 -20.103)" fill="none"/>
    </clipPath>
    <linearGradient id="linear-gradient" x1="-1.491" y1="1.181" x2="-1.468" y2="1.181" gradientUnits="objectBoundingBox">
      <stop offset="0" stop-color="#501d68"/>
      <stop offset="0.231" stop-color="#7f196d"/>
      <stop offset="0.462" stop-color="#a61771"/>
      <stop offset="0.673" stop-color="#c31574"/>
      <stop offset="0.856" stop-color="#d41476"/>
      <stop offset="0.99" stop-color="#db1477"/>
      <stop offset="1" stop-color="#db1477"/>
    </linearGradient>
    <clipPath id="clip-path-3">
      <path id="Path_15" data-name="Path 15" d="M57.5.018C40.317.588,26.784,14.59,27.457,34.85l.16,4.826a2.17,2.17,0,0,0,2.047,2.254,2.167,2.167,0,0,0,1.888-2.385l-.16-4.826C30.805,17.019,42.64,5.155,57.655,4.657s27.609,10.554,28.2,28.255l.161,4.826a2,2,0,1,0,3.937-.131l-.161-4.825C89.129,12.947,75.284,0,58.578,0c-.358,0-.719.006-1.079.018" transform="translate(-27.433)" fill="none"/>
    </clipPath>
    <linearGradient id="linear-gradient-2" x1="-0.504" y1="3.637" x2="-0.485" y2="3.637" gradientUnits="objectBoundingBox">
      <stop offset="0" stop-color="#fc9f00"/>
      <stop offset="0.7" stop-color="#e54620"/>
      <stop offset="1" stop-color="#e54620"/>
    </linearGradient>
    <clipPath id="clip-path-4">
      <path id="Path_9" data-name="Path 9" d="M63.2,43.256H80.5v-.027Z" transform="translate(-63.202 -43.229)" fill="none"/>
    </clipPath>
    <linearGradient id="linear-gradient-3" x1="-4.326" y1="3725.358" x2="-4.257" y2="3725.358" gradientUnits="objectBoundingBox">
      <stop offset="0" stop-color="#0e295c"/>
      <stop offset="0.005" stop-color="#0e295c"/>
      <stop offset="1" stop-color="#006baa"/>
    </linearGradient>
    <linearGradient id="linear-gradient-5" x1="-4.326" y1="3757.583" x2="-4.257" y2="3757.583" xlink:href="#linear-gradient-3"/>
  </defs>
  <g id="logo" transform="translate(-266.217 -515.139)">
    <g id="Group_2" data-name="Group 2" transform="translate(266.217 515.139)">
      <g id="Group_1" data-name="Group 1" clip-path="url(#clip-path)">
        <path id="Path_1" data-name="Path 1" d="M150.476,125.8q-12.547,0-19.18-7.582T124.666,96.3V46.582q0-13.439,6.571-20.4t19.239-6.958q12.668,0,19.239,6.958t6.571,20.4V96.3q0,14.336-6.63,21.916t-19.18,7.582m.179-19.268q4.758,0,4.757-9.219V46.227q0-7.733-4.638-7.733-5.236,0-5.234,7.911V97.431q0,4.875,1.19,6.988a4.149,4.149,0,0,0,3.925,2.11" transform="translate(22.939 3.538)" fill="#2c2c2c"/>
        <path id="Path_2" data-name="Path 2" d="M175.4,124.7V20.031h21.529l9.634,50.133V20.031H226.78V124.7H206.323L195.855,72.365V124.7Z" transform="translate(32.273 3.686)" fill="#2c2c2c"/>
        <path id="Path_3" data-name="Path 3" d="M226.631,124.7V20.031H268.5V40.25H247.921v20.4h19.744V80.333H247.921V104.3h21.944v20.4Z" transform="translate(41.7 3.686)" fill="#2c2c2c"/>
        <path id="Path_4" data-name="Path 4" d="M132.2,131.914a4.772,4.772,0,0,1-3.736-1.289,6.09,6.09,0,0,1-1.143-4.1v-1.848h3.738v2.364a2.2,2.2,0,0,0,.2,1.027.718.718,0,0,0,.693.371.794.794,0,0,0,.715-.3,1.859,1.859,0,0,0,.2-.989,5.235,5.235,0,0,0-.173-1.456,3.3,3.3,0,0,0-.6-1.118,12.718,12.718,0,0,0-1.176-1.241l-1.7-1.611a5.5,5.5,0,0,1-1.9-4.1,5.4,5.4,0,0,1,1.121-3.686,4.114,4.114,0,0,1,3.251-1.268,4.42,4.42,0,0,1,3.689,1.386,6.746,6.746,0,0,1,1.093,4.212h-3.848v-1.3a.8.8,0,0,0-.22-.6.966.966,0,0,0-1.257.038.983.983,0,0,0-.21.65,2.051,2.051,0,0,0,.215.86,3.8,3.8,0,0,0,.849,1.063l2.181,2.1a12.571,12.571,0,0,1,1.2,1.317,5.628,5.628,0,0,1,.881,1.611,6.568,6.568,0,0,1,.334,2.24,7.606,7.606,0,0,1-.983,4.175,3.772,3.772,0,0,1-3.422,1.51" transform="translate(23.428 20.729)" fill="#2c2c2c"/>
        <path id="Path_5" data-name="Path 5" d="M161.662,131.716v-15.28h-2.245V112.8h8.273v3.633h-2.245v15.28Z" transform="translate(29.333 20.756)" fill="#2c2c2c"/>
        <path id="Path_6" data-name="Path 6" d="M195.547,131.914a4.356,4.356,0,0,1-3.466-1.369,5.841,5.841,0,0,1-1.2-3.96V117.6a5.171,5.171,0,0,1,1.188-3.686,5.432,5.432,0,0,1,6.951,0,5.171,5.171,0,0,1,1.188,3.686v8.982a5.841,5.841,0,0,1-1.2,3.96,4.355,4.355,0,0,1-3.464,1.369m.032-3.481q.86,0,.86-1.665v-9.23q0-1.4-.838-1.4-.947,0-.946,1.429v9.22a2.723,2.723,0,0,0,.215,1.262.75.75,0,0,0,.709.381" transform="translate(35.123 20.73)" fill="#2c2c2c"/>
        <path id="Path_7" data-name="Path 7" d="M223.765,131.716V112.805h5.8a3.2,3.2,0,0,1,2.193.661,3.313,3.313,0,0,1,.993,1.848,13.55,13.55,0,0,1,.253,2.788,6.43,6.43,0,0,1-.393,2.471,2.267,2.267,0,0,1-1.476,1.279,1.7,1.7,0,0,1,1.251.887,4.008,4.008,0,0,1,.36,1.821v7.156h-3.73v-7.4c0-.552-.112-.893-.337-1.025a2.253,2.253,0,0,0-1.092-.2v8.628Zm3.847-11.905h.913q.785,0,.785-1.709a3.89,3.89,0,0,0-.172-1.45.654.654,0,0,0-.645-.343h-.881Z" transform="translate(41.173 20.756)" fill="#2c2c2c"/>
        <path id="Path_8" data-name="Path 8" d="M256.338,131.716V112.8H263.9v3.654h-3.718v3.686h3.567V123.7h-3.567v4.33h3.965v3.686Z" transform="translate(47.166 20.756)" fill="#2c2c2c"/>
      </g>
    </g>
    <path id="Path_13" data-name="Path 13" d="M92.132,131.469v-83.7h-17.3V20.36L2.079,18.713A2.028,2.028,0,0,0,0,20.875,980.2,980.2,0,0,1,.019,146.231a2.2,2.2,0,0,0,2.306,2.344l4.506-.225a1164.549,1164.549,0,0,1,121.971.307.658.658,0,0,0,.693-.707l-1.64-21.571Zm-60.151-92.2a3.622,3.622,0,0,1-.278-4.358,3.355,3.355,0,0,1,6.111,1.917c0,2.644-3.062,4.576-5.832,2.441" transform="translate(266.217 518.582)" fill="#501d68"/>
    <g id="Group_14" data-name="Group 14" transform="translate(342.744 538.941)">
      <g id="Group_13" data-name="Group 13" clip-path="url(#clip-path-2)">
        <rect id="Rectangle_7" data-name="Rectangle 7" width="51.326" height="109.074" transform="translate(0 0)" fill="url(#linear-gradient)"/>
      </g>
    </g>
    <g id="Group_16" data-name="Group 16" transform="translate(298.697 515.139)">
      <g id="Group_15" data-name="Group 15" clip-path="url(#clip-path-3)">
        <rect id="Rectangle_8" data-name="Rectangle 8" width="63.207" height="41.967" transform="translate(-0.648 -0.001)" fill="url(#linear-gradient-2)"/>
      </g>
    </g>
    <g id="Group_4" data-name="Group 4" transform="translate(341.048 566.322)">
      <g id="Group_3" data-name="Group 3" clip-path="url(#clip-path-4)">
        <rect id="Rectangle_2" data-name="Rectangle 2" width="17.299" height="0.027" transform="translate(0)" fill="url(#linear-gradient-3)"/>
      </g>
    </g>
    <g id="Group_6" data-name="Group 6" transform="translate(341.048 566.322)">
      <g id="Group_5" data-name="Group 5" clip-path="url(#clip-path-4)">
        <rect id="Rectangle_3" data-name="Rectangle 3" width="17.299" height="0.027" transform="translate(0)" fill="url(#linear-gradient-3)"/>
      </g>
    </g>
    <g id="Group_8" data-name="Group 8" transform="translate(341.048 566.322)">
      <g id="Group_7" data-name="Group 7" clip-path="url(#clip-path-4)">
        <rect id="Rectangle_4" data-name="Rectangle 4" width="17.299" height="0.027" fill="url(#linear-gradient-5)"/>
      </g>
    </g>
    <g id="Group_10" data-name="Group 10" transform="translate(341.048 566.322)">
      <g id="Group_9" data-name="Group 9" clip-path="url(#clip-path-4)">
        <rect id="Rectangle_5" data-name="Rectangle 5" width="17.299" height="0.027" fill="url(#linear-gradient-5)"/>
      </g>
    </g>
  </g>
</svg>
